HIERARCHY
ROOT Hips
{
	OFFSET 0.000000 83.214638 0.000000
	CHANNELS 6 Xposition Yposition Zposition Xrotation Yrotation Zrotation
	JOINT Pelvis
	{
		OFFSET 0.000000 0.000000 0.000000
		CHANNELS 3 Xrotation Yrotation Zrotation
		JOINT LeftUpLeg
		{
			OFFSET 8.479700 -4.795502 -0.379100
			CHANNELS 3 Xrotation Yrotation Zrotation
			JOINT LeftLeg
			{
				OFFSET 0.024144 -32.555107 0.112900
				CHANNELS 3 Xrotation Yrotation Zrotation
				JOINT LeftFoot
				{
					OFFSET -0.024144 -32.638630 -3.012600
					CHANNELS 3 Xrotation Yrotation Zrotation
					JOINT LeftToeBase
					{
						OFFSET 0.970200 -13.225400 11.864200
						CHANNELS 3 Xrotation Yrotation Zrotation
						End Site
						{
							OFFSET 0.000000 12.319262 0.000000
						}
					}
					JOINT LFootTongue
					{
						OFFSET 1.142400 -1.059800 6.665200
						CHANNELS 3 Xrotation Yrotation Zrotation
						End Site
						{
							OFFSET 0.000000 12.319262 0.000000
						}
					}
				}
				JOINT LeftPantLeg
				{
					OFFSET 0.918482 -16.533964 -2.284700
					CHANNELS 3 Xrotation Yrotation Zrotation
					End Site
					{
						OFFSET 0.350399 24.744368 0.000000
					}
				}
			}
		}
		JOINT RightUpLeg
		{
			OFFSET -8.479700 -4.795502 -0.379100
			CHANNELS 3 Xrotation Yrotation Zrotation
			JOINT RightLeg
			{
				OFFSET -0.023144 -32.555092 0.112900
				CHANNELS 3 Xrotation Yrotation Zrotation
				JOINT RightFoot
				{
					OFFSET 0.023144 -32.638641 -3.012700
					CHANNELS 3 Xrotation Yrotation Zrotation
					JOINT RightToeBase
					{
						OFFSET -0.970200 -13.225400 11.864200
						CHANNELS 3 Xrotation Yrotation Zrotation
						End Site
						{
							OFFSET 0.000000 12.319244 0.000000
						}
					}
					JOINT RFootTongue
					{
						OFFSET -1.142200 -1.059800 6.665200
						CHANNELS 3 Xrotation Yrotation Zrotation
						End Site
						{
							OFFSET 0.000000 12.319243 0.000000
						}
					}
				}
				JOINT RightPantLeg
				{
					OFFSET -0.919482 -16.533978 -2.284800
					CHANNELS 3 Xrotation Yrotation Zrotation
					End Site
					{
						OFFSET -0.350400 24.744419 0.000000
					}
				}
			}
		}
	}
	JOINT Spine
	{
		OFFSET 0.000000 7.722000 1.166200
		CHANNELS 3 Xrotation Yrotation Zrotation
		JOINT Spine1
		{
			OFFSET 0.000000 12.024101 0.248800
			CHANNELS 3 Xrotation Yrotation Zrotation
			JOINT Spine2
			{
				OFFSET 0.000000 11.502998 -0.491200
				CHANNELS 3 Xrotation Yrotation Zrotation
				JOINT Neck
				{
					OFFSET 0.000000 18.430702 -3.123100
					CHANNELS 3 Xrotation Yrotation Zrotation
					JOINT Head
					{
						OFFSET 0.000000 9.051102 1.034000
						CHANNELS 3 Xrotation Yrotation Zrotation
						JOINT HairB
						{
							OFFSET 0.208400 24.786102 24.822300
							CHANNELS 3 Xrotation Yrotation Zrotation
							End Site
							{
								OFFSET 0.000000 32.263779 0.000000
							}
						}
						JOINT HairA
						{
							OFFSET -7.081100 24.428299 23.196600
							CHANNELS 3 Xrotation Yrotation Zrotation
							End Site
							{
								OFFSET 0.000000 32.263779 0.000000
							}
						}
						JOINT Hat
						{
							OFFSET 16.728800 15.048294 -15.439601
							CHANNELS 3 Xrotation Yrotation Zrotation
							End Site
							{
								OFFSET 0.000000 32.263779 0.000000
							}
						}
					}
				}
				JOINT LeftShoulder
				{
					OFFSET 6.197800 13.665199 -4.064700
					CHANNELS 3 Xrotation Yrotation Zrotation
					JOINT LeftArm
					{
						OFFSET 7.778100 -0.187103 -1.709300
						CHANNELS 3 Xrotation Yrotation Zrotation
						JOINT LeftForeArm
						{
							OFFSET 22.049376 0.000000 0.000000
							CHANNELS 3 Xrotation Yrotation Zrotation
							JOINT LeftHand
							{
								OFFSET 23.009392 0.000000 0.000000
								CHANNELS 3 Xrotation Yrotation Zrotation
								JOINT LeftHandThumb1
								{
									OFFSET 3.507191 -2.063065 3.133727
									CHANNELS 3 Xrotation Yrotation Zrotation
									JOINT LeftHandThumb2
									{
										OFFSET 3.101337 -1.790558 1.790558
										CHANNELS 3 Xrotation Yrotation Zrotation
										JOINT LeftHandThumb3
										{
											OFFSET 3.058640 -1.765907 1.765906
											CHANNELS 3 Xrotation Yrotation Zrotation
											End Site
											{
												OFFSET -0.415260 3.926476 -0.049563
											}
										}
									}
								}
								JOINT LeftHandIndex1
								{
									OFFSET 11.334419 -0.901459 3.706815
									CHANNELS 3 Xrotation Yrotation Zrotation
									JOINT LeftHandIndex2
									{
										OFFSET 3.283112 0.000000 0.000000
										CHANNELS 3 Xrotation Yrotation Zrotation
										JOINT LeftHandIndex3
										{
											OFFSET 3.323853 0.000000 0.000000
											CHANNELS 3 Xrotation Yrotation Zrotation
											End Site
											{
												OFFSET -1.135597 3.097809 0.402452
											}
										}
									}
								}
								JOINT LeftHandMiddle1
								{
									OFFSET 11.335861 0.000000 0.000000
									CHANNELS 3 Xrotation Yrotation Zrotation
									JOINT LeftHandMiddle2
									{
										OFFSET 3.410492 0.000000 0.000000
										CHANNELS 3 Xrotation Yrotation Zrotation
										JOINT LeftHandMiddle3
										{
											OFFSET 3.312172 0.000000 0.000000
											CHANNELS 3 Xrotation Yrotation Zrotation
											End Site
											{
												OFFSET -1.150200 3.080154 0.400270
											}
										}
									}
								}
								JOINT LeftHandRing1
								{
									OFFSET 11.514786 -0.013176 -3.003090
									CHANNELS 3 Xrotation Yrotation Zrotation
									JOINT LeftHandRing2
									{
										OFFSET 3.053307 0.000000 0.000000
										CHANNELS 3 Xrotation Yrotation Zrotation
										JOINT LeftHandRing3
										{
											OFFSET 3.295807 0.000000 0.000000
											CHANNELS 3 Xrotation Yrotation Zrotation
											End Site
											{
												OFFSET -1.281006 3.013344 0.375733
											}
										}
									}
								}
								JOINT LeftHandPinky1
								{
									OFFSET 10.518692 -0.960396 -5.730441
									CHANNELS 3 Xrotation Yrotation Zrotation
									JOINT LeftHandPinky2
									{
										OFFSET 2.861649 0.000000 0.000000
										CHANNELS 3 Xrotation Yrotation Zrotation
										JOINT LeftHandPinky3
										{
											OFFSET 2.863380 0.000000 0.000000
											CHANNELS 3 Xrotation Yrotation Zrotation
											End Site
											{
												OFFSET -0.843597 2.711159 0.369971
											}
										}
									}
								}
							}
							JOINT LSleeve
							{
								OFFSET 6.676277 -0.344902 -1.011730
								CHANNELS 3 Xrotation Yrotation Zrotation
								End Site
								{
									OFFSET 0.000000 14.885353 0.000000
								}
							}
						}
					}
				}
				JOINT RightShoulder
				{
					OFFSET -6.197800 13.665199 -4.064700
					CHANNELS 3 Xrotation Yrotation Zrotation
					JOINT RightArm
					{
						OFFSET -7.778100 -0.187103 -1.709300
						CHANNELS 3 Xrotation Yrotation Zrotation
						JOINT RightForeArm
						{
							OFFSET -22.049376 0.000000 0.000000
							CHANNELS 3 Xrotation Yrotation Zrotation
							JOINT RightHand
							{
								OFFSET -23.009392 0.000000 0.000000
								CHANNELS 3 Xrotation Yrotation Zrotation
								JOINT RightHandThumb1
								{
									OFFSET -3.507191 -2.063065 3.133727
									CHANNELS 3 Xrotation Yrotation Zrotation
									JOINT RightHandThumb2
									{
										OFFSET -3.101337 -1.790558 1.790558
										CHANNELS 3 Xrotation Yrotation Zrotation
										JOINT RightHandThumb3
										{
											OFFSET -3.058640 -1.765907 1.765906
											CHANNELS 3 Xrotation Yrotation Zrotation
											End Site
											{
												OFFSET 0.415260 3.926476 -0.049563
											}
										}
									}
								}
								JOINT RightHandIndex1
								{
									OFFSET -11.334419 -0.901459 3.706815
									CHANNELS 3 Xrotation Yrotation Zrotation
									JOINT RightHandIndex2
									{
										OFFSET -3.283112 0.000000 0.000000
										CHANNELS 3 Xrotation Yrotation Zrotation
										JOINT RightHandIndex3
										{
											OFFSET -3.323853 0.000000 0.000000
											CHANNELS 3 Xrotation Yrotation Zrotation
											End Site
											{
												OFFSET 1.135597 3.097809 0.402452
											}
										}
									}
								}
								JOINT RightHandMiddle1
								{
									OFFSET -11.335861 0.000000 0.000000
									CHANNELS 3 Xrotation Yrotation Zrotation
									JOINT RightHandMiddle2
									{
										OFFSET -3.410492 0.000000 0.000000
										CHANNELS 3 Xrotation Yrotation Zrotation
										JOINT RightHandMiddle3
										{
											OFFSET -3.312172 0.000000 0.000000
											CHANNELS 3 Xrotation Yrotation Zrotation
											End Site
											{
												OFFSET 1.150200 3.080154 0.400270
											}
										}
									}
								}
								JOINT RightHandRing1
								{
									OFFSET -11.514786 -0.013176 -3.003090
									CHANNELS 3 Xrotation Yrotation Zrotation
									JOINT RightHandRing2
									{
										OFFSET -3.053307 0.000000 0.000000
										CHANNELS 3 Xrotation Yrotation Zrotation
										JOINT RightHandRing3
										{
											OFFSET -3.295807 0.000000 0.000000
											CHANNELS 3 Xrotation Yrotation Zrotation
											End Site
											{
												OFFSET 1.281006 3.013344 0.375733
											}
										}
									}
								}
								JOINT RightHandPinky1
								{
									OFFSET -10.518692 -0.960396 -5.730441
									CHANNELS 3 Xrotation Yrotation Zrotation
									JOINT RightHandPinky2
									{
										OFFSET -2.861649 0.000000 0.000000
										CHANNELS 3 Xrotation Yrotation Zrotation
										JOINT RightHandPinky3
										{
											OFFSET -2.863380 0.000000 0.000000
											CHANNELS 3 Xrotation Yrotation Zrotation
											End Site
											{
												OFFSET 0.843597 2.711159 0.369971
											}
										}
									}
								}
							}
							JOINT RSleeve
							{
								OFFSET -6.676277 -0.344902 -1.011730
								CHANNELS 3 Xrotation Yrotation Zrotation
								End Site
								{
									OFFSET 0.000000 14.885353 0.000000
								}
							}
						}
					}
				}
				JOINT Backpack
				{
					OFFSET 0.000000 -2.471497 36.677502
					CHANNELS 3 Xrotation Yrotation Zrotation
					End Site
					{
						OFFSET 0.000000 20.427315 0.000000
					}
				}
				JOINT Hood
				{
					OFFSET 0.000000 18.754097 -10.431000
					CHANNELS 3 Xrotation Yrotation Zrotation
					JOINT Hood1
					{
						OFFSET 0.000000 -5.011002 -7.685901
						CHANNELS 3 Xrotation Yrotation Zrotation
						End Site
						{
							OFFSET 0.000000 9.175140 0.000000
						}
					}
				}
				JOINT LHoodieString
				{
					OFFSET 5.250500 16.397697 3.089900
					CHANNELS 3 Xrotation Yrotation Zrotation
					JOINT LHoodieString1
					{
						OFFSET 0.257700 -6.364304 3.694600
						CHANNELS 3 Xrotation Yrotation Zrotation
						JOINT LHoodieString2
						{
							OFFSET 0.000000 -9.643799 2.679100
							CHANNELS 3 Xrotation Yrotation Zrotation
							End Site
							{
								OFFSET 0.000000 10.009018 0.000000
							}
						}
					}
				}
				JOINT RHoodieString
				{
					OFFSET -5.250500 16.397697 3.089900
					CHANNELS 3 Xrotation Yrotation Zrotation
					JOINT RHoodieString1
					{
						OFFSET -0.257700 -6.364304 3.694600
						CHANNELS 3 Xrotation Yrotation Zrotation
						JOINT RHoodieString2
						{
							OFFSET 0.000000 -9.643799 2.679100
							CHANNELS 3 Xrotation Yrotation Zrotation
							End Site
							{
								OFFSET 0.000000 10.009018 0.000000
							}
						}
					}
				}
			}
			JOINT LBackpack_Strap
			{
				OFFSET 15.223200 -7.719803 -6.610900
				CHANNELS 3 Xrotation Yrotation Zrotation
				End Site
				{
					OFFSET 0.000000 16.040596 0.000000
				}
			}
			JOINT RBackpack_Strap
			{
				OFFSET -15.223000 -7.719803 -6.610900
				CHANNELS 3 Xrotation Yrotation Zrotation
				End Site
				{
					OFFSET 0.000000 16.040596 0.000000
				}
			}
		}
	}
	JOINT BoyFacialAnim_Joint
	{
		OFFSET 1.000000 -82.208099 -1.550900
		CHANNELS 3 Xrotation Yrotation Zrotation
		End Site
		{
			OFFSET 0.000000 30.012791 0.000000
		}
	}
}
MOTION
Frames: 4
Frame Time: 0.033333
-0.085885 78.250923 -1.011507 -1.741191 18.448168 1.344648 -0.000000 0.000001 0.000000 -19.709284 5.517582 2.970613 40.219668 -0.264211 -1.385367 -18.833487 14.994965 -0.160865 0.000000 0.000000 -0.000000 0.000000 0.000000 -0.000000 0.000001 0.000002 0.000000 -31.027333 -9.475458 -11.852504 35.210701 0.282713 1.386840 -2.522232 -3.058167 0.945334 -0.000000 0.000000 0.000000 -0.000000 0.000000 0.000000 -0.000000 -0.000000 0.000000 6.334349 -1.387990 -0.472901 12.667193 -2.800761 -0.670173 12.667190 -2.800757 -0.670174 -19.987649 -2.051478 2.389610 -2.303458 -2.348311 0.853997 -0.000001 -0.000000 -0.000000 -0.000001 -0.000000 -0.000000 -0.000001 -0.000000 -0.000000 0.547014 -1.233603 -7.513126 -19.189700 -33.864761 -65.777140 0.939898 -24.327995 0.387145 41.528083 -4.377098 -12.735486 -11.648188 -1.241612 3.031610 -10.628895 14.732566 7.874460 -0.000000 0.000000 0.000002 -7.941233 8.891282 -19.463148 1.215063 2.190118 -30.116527 0.000000 -0.000001 -0.000004 -0.916519 6.331007 -20.198577 -0.101630 -0.897885 -21.948169 -0.000001 0.000001 0.000002 0.412478 3.783593 -24.921921 -0.594146 -0.970043 -27.292905 0.000000 0.000001 -0.000005 5.394584 2.303390 -26.665844 -1.498247 -4.487131 -26.751143 -0.000001 0.000002 0.000000 0.000001 -0.000002 0.000002 0.512914 0.336251 6.877822 -24.241670 42.589214 71.814487 -0.062714 19.045037 0.009180 19.012235 11.636800 -6.452351 -7.871453 -9.078623 6.475126 -6.847970 -5.342413 -8.073361 0.000001 0.000003 -0.000001 -7.662645 -6.121924 26.184174 0.101532 -0.805686 10.136895 0.000001 -0.000001 0.000002 -0.632985 -5.238567 27.353031 -0.199717 0.898649 17.264329 0.000002 0.000002 -0.000002 1.252936 -9.480991 23.062871 -0.802373 1.296935 39.861039 0.000001 -0.000001 -0.000003 4.070726 -8.533573 35.718519 -1.302791 3.794305 38.436473 -0.000002 -0.000000 0.000004 0.000000 -0.000001 0.000002 -0.000000 -0.000000 0.000000 -0.000000 -0.000000 0.000000 -0.000000 -0.000000 0.000000 -0.000000 -0.000000 0.000000 -0.000000 -0.000000 0.000001 -0.000000 -0.000000 0.000000 -0.000000 -0.000000 0.000000 -0.000000 -0.000000 0.000001 -0.000000 -0.000000 0.000000 0.000001 -0.000002 0.000000 0.000001 -0.000002 0.000000 -0.000000 0.000001 0.000000 
-0.106853 78.246574 -1.017627 -1.742964 18.434735 1.348623 0.000000 0.000002 -0.000000 -19.727603 5.528003 2.990202 40.237235 -0.264355 -1.385889 -18.826505 14.991152 -0.176904 0.000000 0.000002 -0.000000 0.000000 0.000002 0.000000 0.000000 -0.000002 0.000000 -31.049371 -9.481243 -11.841540 35.231277 0.283201 1.387559 -2.523629 -3.044700 0.922393 -0.000000 -0.000000 -0.000000 -0.000000 -0.000000 -0.000000 -0.000000 -0.000000 0.000000 6.334140 -1.385863 -0.473966 12.666739 -2.796554 -0.672357 12.666743 -2.796555 -0.672358 -19.926437 -2.043850 2.383444 -2.384550 -2.301494 0.810356 0.000001 -0.000001 0.000000 0.000001 -0.000001 0.000000 0.000001 -0.000001 0.000000 0.547451 -1.257676 -7.548686 -19.069137 -33.942813 -65.647004 0.949205 -24.411154 0.392246 41.417468 -4.420834 -12.782490 -11.648228 -1.241587 3.031635 -10.628882 14.732532 7.874427 -0.000003 -0.000001 0.000000 -7.941243 8.891294 -19.463147 1.215049 2.190113 -30.116493 -0.000001 -0.000002 -0.000005 -0.916545 6.331017 -20.198568 -0.101644 -0.897888 -21.948191 0.000001 0.000001 0.000002 0.412475 3.783603 -24.921909 -0.594133 -0.970030 -27.292901 0.000001 0.000003 -0.000003 5.394598 2.303385 -26.665842 -1.498241 -4.487126 -26.751122 -0.000000 0.000004 -0.000007 -0.000001 -0.000002 0.000001 0.513186 0.329193 6.873737 -24.241834 42.608704 71.815102 -0.062379 19.043385 0.009123 18.982230 11.649850 -6.450478 -7.871453 -9.078632 6.475128 -6.847930 -5.342397 -8.073364 -0.000000 -0.000001 0.000003 -7.662648 -6.121925 26.184162 0.101521 -0.805668 10.136902 0.000000 0.000003 0.000002 -0.632996 -5.238571 27.353029 -0.199709 0.898651 17.264346 0.000000 0.000003 0.000000 1.252942 -9.481009 23.062895 -0.802370 1.296930 39.861032 0.000000 0.000002 0.000001 4.070733 -8.533581 35.718508 -1.302811 3.794297 38.436493 -0.000002 -0.000001 0.000000 -0.000005 0.000001 -0.000001 -0.000001 -0.000000 0.000001 -0.000001 -0.000000 0.000001 -0.000001 -0.000000 0.000001 -0.000001 -0.000000 0.000001 -0.000001 -0.000000 0.000001 -0.000001 0.000001 0.000001 -0.000001 -0.000000 0.000001 -0.000001 -0.000000 0.000001 -0.000001 0.000001 0.000001 0.000001 0.000001 -0.000000 0.000001 0.000001 -0.000000 0.000000 0.000002 -0.000000 
-0.119895 78.244835 -1.022756 -1.755692 18.435596 1.357817 -0.000000 -0.000000 -0.000000 -19.725899 5.517056 2.991145 40.242204 -0.264369 -1.386039 -18.817946 14.999673 -0.185889 -0.000000 0.000000 0.000000 -0.000000 0.000000 0.000000 -0.000001 0.000002 0.000000 -31.053301 -9.500290 -11.846274 35.242028 0.283418 1.387928 -2.524287 -3.026782 0.906998 0.000000 -0.000000 0.000000 0.000000 -0.000000 0.000000 0.000000 0.000001 0.000000 6.335742 -1.386988 -0.473987 12.669957 -2.798797 -0.672124 12.669950 -2.798801 -0.672123 -19.871194 -2.033847 2.370423 -2.456658 -2.251850 0.780479 0.000000 -0.000001 -0.000000 0.000000 -0.000001 -0.000000 0.000000 -0.000001 -0.000000 0.547836 -1.273870 -7.580647 -18.971219 -34.004947 -65.540282 0.957186 -24.484140 0.396664 41.324758 -4.454566 -12.826795 -11.648209 -1.241591 3.031619 -10.628898 14.732552 7.874446 0.000002 -0.000001 0.000001 -7.941230 8.891290 -19.463135 1.215067 2.190114 -30.116527 -0.000002 0.000000 -0.000004 -0.916517 6.331010 -20.198575 -0.101628 -0.897868 -21.948176 0.000002 -0.000003 0.000002 0.412491 3.783611 -24.921893 -0.594137 -0.970057 -27.292922 -0.000001 -0.000002 -0.000001 5.394589 2.303390 -26.665851 -1.498251 -4.487115 -26.751139 0.000002 0.000003 -0.000002 0.000002 -0.000001 0.000000 0.513472 0.323462 6.868524 -24.255808 42.617508 71.823250 -0.061800 19.037523 0.009018 18.960699 11.648447 -6.447757 -7.871432 -9.078622 6.475115 -6.847965 -5.342417 -8.073364 -0.000003 0.000001 0.000001 -7.662656 -6.121927 26.184182 0.101533 -0.805674 10.136898 0.000001 0.000001 0.000002 -0.632998 -5.238575 27.353046 -0.199707 0.898643 17.264321 0.000000 0.000000 -0.000000 1.252939 -9.481009 23.062887 -0.802362 1.296925 39.861042 -0.000000 -0.000002 0.000002 4.070722 -8.533578 35.718525 -1.302799 3.794316 38.436466 0.000002 -0.000001 0.000004 -0.000001 0.000001 -0.000001 -0.000002 -0.000001 -0.000000 -0.000002 -0.000001 -0.000000 -0.000002 -0.000001 -0.000000 -0.000002 -0.000001 -0.000000 -0.000002 -0.000001 -0.000000 -0.000002 -0.000001 -0.000000 -0.000002 -0.000001 -0.000000 -0.000002 -0.000001 -0.000000 -0.000002 -0.000001 -0.000000 0.000002 -0.000000 0.000000 0.000002 -0.000000 0.000000 -0.000000 -0.000000 -0.000000 
-0.129199 78.245361 -1.026546 -1.777676 18.444255 1.367668 0.000000 0.000000 0.000000 -19.708924 5.491617 2.985200 40.238816 -0.264270 -1.385935 -18.808181 15.016337 -0.192143 0.000000 -0.000002 -0.000000 0.000000 -0.000002 -0.000000 -0.000001 -0.000001 0.000001 -31.040385 -9.530532 -11.855748 35.242448 0.283389 1.387943 -2.523591 -3.005406 0.894606 0.000000 -0.000000 0.000000 0.000000 -0.000000 0.000000 -0.000000 0.000000 0.000000 6.339336 -1.389982 -0.473127 12.677193 -2.804723 -0.669960 12.677177 -2.804723 -0.669959 -19.838074 -2.024518 2.354979 -2.501451 -2.214856 0.770298 0.000000 -0.000001 -0.000000 0.000000 -0.000001 -0.000000 0.000000 -0.000001 -0.000000 0.548159 -1.280914 -7.609343 -18.892493 -34.062300 -65.450827 0.963631 -24.544129 0.400289 41.237325 -4.473623 -12.862828 -11.648197 -1.241602 3.031616 -10.628911 14.732544 7.874458 -0.000003 -0.000001 -0.000000 -7.941236 8.891303 -19.463119 1.215057 2.190102 -30.116531 -0.000002 -0.000002 -0.000000 -0.916519 6.331022 -20.198574 -0.101646 -0.897900 -21.948198 0.000000 0.000003 0.000001 0.412480 3.783607 -24.921905 -0.594133 -0.970033 -27.292898 0.000001 0.000002 -0.000000 5.394598 2.303395 -26.665834 -1.498247 -4.487111 -26.751143 -0.000000 0.000000 -0.000002 -0.000001 0.000001 -0.000000 0.513721 0.318969 6.862993 -24.279774 42.617280 71.838208 -0.061391 19.029073 0.008963 18.948383 11.636974 -6.451339 -7.871430 -9.078614 6.475127 -6.847953 -5.342400 -8.073372 0.000002 -0.000002 0.000004 -7.662638 -6.121912 26.184171 0.101540 -0.805676 10.136894 -0.000001 -0.000002 0.000001 -0.632978 -5.238562 27.353029 -0.199727 0.898670 17.264334 0.000000 -0.000001 -0.000001 1.252936 -9.480993 23.062866 -0.802351 1.296917 39.861056 -0.000001 0.000001 0.000002 4.070748 -8.533562 35.718522 -1.302793 3.794290 38.436473 -0.000003 0.000001 -0.000001 -0.000000 0.000001 -0.000002 0.000000 -0.000000 -0.000000 0.000000 -0.000000 -0.000000 0.000000 -0.000000 -0.000000 0.000000 -0.000000 -0.000000 0.000000 -0.000000 -0.000000 -0.000000 0.000000 0.000000 0.000000 -0.000000 -0.000000 0.000000 -0.000000 -0.000000 -0.000000 0.000000 0.000000 0.000002 -0.000001 -0.000000 0.000002 -0.000001 -0.000000 0.000000 0.000000 0.000000 
